<svg width="230" height="150" viewBox="0 0 23 15" fill="none" xmlns="http://www.w3.org/2000/svg">
<path d="M9.01318 10.2244H12.0739V7.03375H9.01318V10.2244Z" fill="#F9E050"/>
<path d="M4.50586 2.33506H7.56662V0.00158691H4.50586V2.33506Z" fill="#F4F464"/>
<path d="M6.75955 4.68439H9.82031V1.49371H6.75955V4.68439ZM0 4.68439H2.25369V2.33504H0V4.68439ZM4.50586 7.03056H6.75955V4.68121H4.50586V7.03056Z" fill="#F4F464"/>
<path d="M9.01318 12.5674H12.0739V9.37677H9.01318V12.5674Z" fill="#F9B038"/>
<path d="M8.20764 14.0786H12.0724V11.7293H8.20764V14.0786Z" fill="#F6842D"/>
<path d="M2.25366 14.0786H4.50735V11.7293H2.25366V14.0786Z" fill="#F9E050"/>
<path d="M9.01318 3.17639H12.0739V0.00158691H9.01318V3.17639Z" fill="#F6842D"/>
<path d="M4.50586 11.7277H6.75955V9.37836H4.50586V11.7277Z" fill="#F4F464"/>
<path d="M11.2532 5.52573H14.3139V2.33505H11.2532V5.52573Z" fill="#F4AC2B"/>
<path d="M11.2532 7.8703H14.3139V4.67963H11.2532V7.8703Z" fill="#F6842D"/>
<path d="M11.2532 10.2244H14.3139V7.03375H11.2532V10.2244Z" fill="#F4AC2B"/>
<path d="M11.2532 12.5674H14.3139V9.37677H11.2532V12.5674Z" fill="#F6842D"/>
<path d="M11.2684 0.00158747V2.33507H13.5069V11.7293H11.2532V14.0787H17.294C18.2015 14.0787 18.9873 13.9707 19.6482 13.7532C20.3091 13.5389 20.8512 13.1611 21.2775 12.6214C21.7039 12.0817 22.0237 11.3515 22.2308 10.4308C22.4379 9.51329 22.5399 8.34655 22.5399 6.92741C22.5399 5.49558 22.444 4.3336 22.2506 3.44466C22.0557 2.53984 21.7511 1.83662 21.3369 1.33659C20.9264 0.818239 20.3678 0.450073 19.7426 0.285732C19.0954 0.0952441 18.3112 0 17.393 0H13.5053L11.2684 0.00158747ZM15.8565 1.9271H17.3138C17.8163 1.9271 18.2518 1.98742 18.6142 2.10807C18.9928 2.21916 19.3141 2.48158 19.5081 2.83827C19.7426 3.20337 19.9101 3.7161 20.0136 4.37805C20.1309 5.04 20.1888 5.91783 20.1888 7.01313C20.1888 8.10526 20.1278 8.98945 20.0121 9.66409C19.9101 10.326 19.7426 10.8451 19.5096 11.2229C19.2944 11.5718 18.9724 11.8347 18.5959 11.969C18.2305 12.0912 17.8041 12.1515 17.3123 12.1515H15.8565V1.9271Z" fill="#F14D34"/>
<path d="M9.01318 4.68441H11.2669V2.33505H9.01318V4.68441Z" fill="#F9E050"/>
<path d="M6.75952 14.0786H9.01321V11.7293H6.75952V14.0786Z" fill="#F9B038"/>
<path d="M6.75952 2.33506H9.01321V0.00158691H6.75952V2.33506Z" fill="#F9E050"/>
</svg>

