<?xml version="1.0" encoding="UTF-8"?>
<svg
  xmlns="http://www.w3.org/2000/svg"
  width="50"
  height="50"
  viewBox="0 0 50 50">

  <!-- Yellow pixel -->
  <rect
    x="7.059"
    y="8.200254"
    width="6.056168"
    height="6.056168"
    fill="#f4f464" />

  <!-- Orange block -->
  <polygon
    points="88.44,19.78 70.76,19.78 70.76,37.47 70.76,55.16 70.76,72.85
            53.07,72.85 53.07,90.54 70.76,90.54 88.44,90.54 88.44,72.85
            88.44,55.16 88.44,37.47"
    transform="matrix(0.34234973 0 0 0.34234973 7.059 1.428574)"
    fill="#f4ac2b" />

  <!-- Light yellow pixels -->
  <g fill="#f9e050">
    <rect x="19.171333" y="2.144085" width="6.056167" height="6.056167"/>
    <rect x="25.227499" y="8.200252" width="6.056167" height="6.056167"/>
    <rect x="19.171333" y="14.256419" width="6.056167" height="6.056167"/>
    <rect x="25.227499" y="20.312586" width="6.056167" height="6.056167"/>
    <rect x="19.171333" y="26.368752" width="6.056167" height="6.056167"/>
    <rect x="25.227499" y="32.424919" width="6.056167" height="6.056167"/>
  </g>

  <!-- Red parts of D -->
  <polygon
    points="141.51,72.85 141.51,90.54 159.2,90.54 159.2,72.85
            159.2,55.16 159.2,37.47 159.2,19.78 141.51,19.78
            141.51,37.47 141.51,55.16"
    transform="matrix(0.34234973 0 0 0.34234973 7.059 1.428574)"
    fill="#f14d34" />

  <polygon
    points="70.76,108.23 88.44,108.23 106.13,108.23 123.82,108.23
            141.51,108.23 141.51,90.54 123.82,90.54 106.13,90.54
            106.13,72.85 106.13,55.16 106.13,37.47 106.13,19.78
            123.82,19.78 141.51,19.78 141.51,2.09 123.82,2.09
            106.13,2.09 88.44,2.09 70.76,2.09 70.76,19.78
            88.44,19.78 88.44,37.47 88.44,55.16 88.44,72.85
            88.44,90.54 70.76,90.54"
    transform="matrix(0.34234973 0 0 0.34234973 7.059 1.428574)"
    fill="#f14d34" />

</svg>
