<svg width="386" height="436" viewBox="0 0 386 436" fill="none" xmlns="http://www.w3.org/2000/svg">
<path d="M360.719 0H207.01C193.054 0 181.728 11.3259 181.728 25.2811V178.99C181.728 192.946 193.054 204.271 207.01 204.271H280.578C279.617 244.519 270.263 276.727 252.566 300.946C238.611 320.059 217.476 335.885 189.212 348.374C176.217 354.087 170.605 369.458 176.672 382.302L194.875 420.729C200.74 433.065 215.251 438.476 227.791 433.066C261.263 418.605 289.528 400.301 312.583 378.054C340.697 350.902 359.96 320.261 370.376 286.081C380.792 251.901 386 205.283 386 146.125V25.2811C386 11.3264 374.673 0 360.719 0Z" fill="#050C33"/>
<path d="M-53.3859 432.964C-20.3182 418.554 7.79438 400.251 31.0025 378.054C59.3679 350.902 78.7332 320.362 89.149 286.435C99.5649 252.508 104.772 205.738 104.772 146.125V25.2811C104.772 11.3259 93.4468 0 79.4911 0H-74.2181C-88.1733 0 -99.4992 11.3259 -99.4992 25.2811V178.99C-99.4992 192.946 -88.1733 204.271 -74.2181 204.271H-0.650017C-1.61069 244.519 -10.9647 276.727 -28.6615 300.946C-42.6167 320.059 -63.7517 335.885 -92.016 348.374C-105.01 354.087 -110.623 369.458 -104.555 382.302L-86.4036 420.628C-80.5379 432.964 -65.9254 438.426 -53.3859 432.964Z" fill="#050C33"/>
</svg>
